<svg width="20" height="20" viewBox="0 0 20 20" fill="none" xmlns="http://www.w3.org/2000/svg">
<g id="ep:arrow-left-bold">
<path id="Vector" d="M6.61656 17.9549C6.38222 17.7205 6.25057 17.4026 6.25057 17.0712C6.25057 16.7397 6.38222 16.4218 6.61656 16.1874L12.8041 9.99994L6.61656 3.81244C6.38886 3.57669 6.26287 3.26093 6.26571 2.93319C6.26856 2.60544 6.40002 2.29193 6.63178 2.06017C6.86354 1.82841 7.17706 1.69695 7.50481 1.6941C7.83255 1.69125 8.1483 1.81724 8.38406 2.04494L15.4553 9.11619C15.6896 9.3506 15.8213 9.66848 15.8213 9.99994C15.8213 10.3314 15.6896 10.6493 15.4553 10.8837L8.38406 17.9549C8.14965 18.1893 7.83176 18.3209 7.50031 18.3209C7.16885 18.3209 6.85097 18.1893 6.61656 17.9549Z" fill="#F8F8F8"/>
</g>
</svg>
